<mxfile host="app.diagrams.net" agent="Mozilla/5.0 (Windows NT 10.0; Win64; x64) AppleWebKit/537.36 (KHTML, like Gecko) Chrome/129.0.0.0 Safari/537.36" version="24.7.17">
  <diagram name="Page-1" id="Zc7NjJWejjtP_8PI0IVu">
    <mxGraphModel dx="712" dy="823" grid="1" gridSize="10" guides="1" tooltips="1" connect="1" arrows="1" fold="1" page="1" pageScale="1" pageWidth="827" pageHeight="1169" math="0" shadow="0">
      <root>
        <mxCell id="0" />
        <mxCell id="1" parent="0" />
        <mxCell id="7IMwcERZMAyx-2PKP01N-5" value="" style="edgeStyle=orthogonalEdgeStyle;rounded=0;orthogonalLoop=1;jettySize=auto;html=1;" edge="1" parent="1" source="7IMwcERZMAyx-2PKP01N-1" target="7IMwcERZMAyx-2PKP01N-4">
          <mxGeometry relative="1" as="geometry" />
        </mxCell>
        <mxCell id="7IMwcERZMAyx-2PKP01N-1" value="Start" style="ellipse;whiteSpace=wrap;html=1;" vertex="1" parent="1">
          <mxGeometry x="294" y="90" width="120" height="50" as="geometry" />
        </mxCell>
        <mxCell id="7IMwcERZMAyx-2PKP01N-9" value="" style="edgeStyle=orthogonalEdgeStyle;rounded=0;orthogonalLoop=1;jettySize=auto;html=1;" edge="1" parent="1" source="7IMwcERZMAyx-2PKP01N-4" target="7IMwcERZMAyx-2PKP01N-8">
          <mxGeometry relative="1" as="geometry" />
        </mxCell>
        <mxCell id="7IMwcERZMAyx-2PKP01N-4" value="int sum = 0;" style="whiteSpace=wrap;html=1;" vertex="1" parent="1">
          <mxGeometry x="294" y="170" width="120" height="60" as="geometry" />
        </mxCell>
        <mxCell id="7IMwcERZMAyx-2PKP01N-11" value="" style="edgeStyle=orthogonalEdgeStyle;rounded=0;orthogonalLoop=1;jettySize=auto;html=1;" edge="1" parent="1" source="7IMwcERZMAyx-2PKP01N-8" target="7IMwcERZMAyx-2PKP01N-10">
          <mxGeometry relative="1" as="geometry" />
        </mxCell>
        <mxCell id="7IMwcERZMAyx-2PKP01N-8" value="for&lt;div&gt;(int i = 0; i &amp;lt; 200; i++)&lt;/div&gt;" style="rhombus;whiteSpace=wrap;html=1;" vertex="1" parent="1">
          <mxGeometry x="251" y="260" width="206" height="110" as="geometry" />
        </mxCell>
        <mxCell id="7IMwcERZMAyx-2PKP01N-14" value="" style="edgeStyle=orthogonalEdgeStyle;rounded=0;orthogonalLoop=1;jettySize=auto;html=1;" edge="1" parent="1" source="7IMwcERZMAyx-2PKP01N-10" target="7IMwcERZMAyx-2PKP01N-13">
          <mxGeometry relative="1" as="geometry" />
        </mxCell>
        <mxCell id="7IMwcERZMAyx-2PKP01N-17" value="True" style="edgeLabel;html=1;align=center;verticalAlign=middle;resizable=0;points=[];" vertex="1" connectable="0" parent="7IMwcERZMAyx-2PKP01N-14">
          <mxGeometry x="0.2667" relative="1" as="geometry">
            <mxPoint as="offset" />
          </mxGeometry>
        </mxCell>
        <mxCell id="7IMwcERZMAyx-2PKP01N-16" value="" style="edgeStyle=orthogonalEdgeStyle;rounded=0;orthogonalLoop=1;jettySize=auto;html=1;entryX=0.5;entryY=0;entryDx=0;entryDy=0;" edge="1" parent="1" source="7IMwcERZMAyx-2PKP01N-10" target="7IMwcERZMAyx-2PKP01N-8">
          <mxGeometry relative="1" as="geometry">
            <mxPoint x="254" y="440" as="targetPoint" />
            <Array as="points">
              <mxPoint x="284" y="440" />
              <mxPoint x="284" y="441" />
              <mxPoint x="200" y="441" />
              <mxPoint x="200" y="240" />
              <mxPoint x="354" y="240" />
            </Array>
          </mxGeometry>
        </mxCell>
        <mxCell id="7IMwcERZMAyx-2PKP01N-18" value="False" style="edgeLabel;html=1;align=center;verticalAlign=middle;resizable=0;points=[];" vertex="1" connectable="0" parent="7IMwcERZMAyx-2PKP01N-16">
          <mxGeometry x="-0.2667" y="-1" relative="1" as="geometry">
            <mxPoint as="offset" />
          </mxGeometry>
        </mxCell>
        <mxCell id="7IMwcERZMAyx-2PKP01N-10" value="if&lt;div&gt;(i % 3 == 0)&lt;/div&gt;" style="rhombus;whiteSpace=wrap;html=1;" vertex="1" parent="1">
          <mxGeometry x="314" y="400" width="80" height="80" as="geometry" />
        </mxCell>
        <mxCell id="7IMwcERZMAyx-2PKP01N-20" style="edgeStyle=orthogonalEdgeStyle;rounded=0;orthogonalLoop=1;jettySize=auto;html=1;entryX=0.5;entryY=0;entryDx=0;entryDy=0;" edge="1" parent="1" source="7IMwcERZMAyx-2PKP01N-13" target="7IMwcERZMAyx-2PKP01N-8">
          <mxGeometry relative="1" as="geometry">
            <Array as="points">
              <mxPoint x="477" y="560" />
              <mxPoint x="477" y="240" />
              <mxPoint x="354" y="240" />
            </Array>
          </mxGeometry>
        </mxCell>
        <mxCell id="7IMwcERZMAyx-2PKP01N-13" value="sum += i;" style="whiteSpace=wrap;html=1;" vertex="1" parent="1">
          <mxGeometry x="294" y="530" width="120" height="60" as="geometry" />
        </mxCell>
      </root>
    </mxGraphModel>
  </diagram>
</mxfile>
